<svg width="155" height="52" viewBox="0 0 145 32" fill="none" xmlns="http://www.w3.org/2000/svg">
    <path d="M17.31 21.885C17.53 21.885 17.725 21.97 17.895 22.14L19.485 23.865C18.605 24.955 17.52 25.79 16.23 26.37C14.95 26.95 13.41 27.24 11.61 27.24C10 27.24 8.55 26.965 7.26 26.415C5.98 25.865 4.885 25.1 3.975 24.12C3.065 23.14 2.365 21.97 1.875 20.61C1.395 19.25 1.155 17.765 1.155 16.155C1.155 14.525 1.415 13.035 1.935 11.685C2.455 10.325 3.185 9.155 4.125 8.175C5.075 7.195 6.205 6.435 7.515 5.895C8.825 5.345 10.275 5.07 11.865 5.07C13.445 5.07 14.845 5.33 16.065 5.85C17.295 6.37 18.34 7.05 19.2 7.89L17.85 9.765C17.77 9.885 17.665 9.99 17.535 10.08C17.415 10.17 17.245 10.215 17.025 10.215C16.875 10.215 16.72 10.175 16.56 10.095C16.4 10.005 16.225 9.9 16.035 9.78C15.845 9.65 15.625 9.51 15.375 9.36C15.125 9.21 14.835 9.075 14.505 8.955C14.175 8.825 13.79 8.72 13.35 8.64C12.92 8.55 12.42 8.505 11.85 8.505C10.88 8.505 9.99 8.68 9.18 9.03C8.38 9.37 7.69 9.87 7.11 10.53C6.53 11.18 6.08 11.98 5.76 12.93C5.44 13.87 5.28 14.945 5.28 16.155C5.28 17.375 5.45 18.46 5.79 19.41C6.14 20.36 6.61 21.16 7.2 21.81C7.79 22.46 8.485 22.96 9.285 23.31C10.085 23.65 10.945 23.82 11.865 23.82C12.415 23.82 12.91 23.79 13.35 23.73C13.8 23.67 14.21 23.575 14.58 23.445C14.96 23.315 15.315 23.15 15.645 22.95C15.985 22.74 16.32 22.485 16.65 22.185C16.75 22.095 16.855 22.025 16.965 21.975C17.075 21.915 17.19 21.885 17.31 21.885ZM29.794 20.43C28.724 20.48 27.824 20.575 27.094 20.715C26.364 20.845 25.779 21.015 25.339 21.225C24.899 21.435 24.584 21.68 24.394 21.96C24.204 22.24 24.109 22.545 24.109 22.875C24.109 23.525 24.299 23.99 24.679 24.27C25.069 24.55 25.574 24.69 26.194 24.69C26.954 24.69 27.609 24.555 28.159 24.285C28.719 24.005 29.264 23.585 29.794 23.025V20.43ZM21.304 13.755C23.074 12.135 25.204 11.325 27.694 11.325C28.594 11.325 29.399 11.475 30.109 11.775C30.819 12.065 31.419 12.475 31.909 13.005C32.399 13.525 32.769 14.15 33.019 14.88C33.279 15.61 33.409 16.41 33.409 17.28V27H31.729C31.379 27 31.109 26.95 30.919 26.85C30.729 26.74 30.579 26.525 30.469 26.205L30.139 25.095C29.749 25.445 29.369 25.755 28.999 26.025C28.629 26.285 28.244 26.505 27.844 26.685C27.444 26.865 27.014 27 26.554 27.09C26.104 27.19 25.604 27.24 25.054 27.24C24.404 27.24 23.804 27.155 23.254 26.985C22.704 26.805 22.229 26.54 21.829 26.19C21.429 25.84 21.119 25.405 20.899 24.885C20.679 24.365 20.569 23.76 20.569 23.07C20.569 22.68 20.634 22.295 20.764 21.915C20.894 21.525 21.104 21.155 21.394 20.805C21.694 20.455 22.079 20.125 22.549 19.815C23.019 19.505 23.594 19.235 24.274 19.005C24.964 18.775 25.764 18.59 26.674 18.45C27.584 18.3 28.624 18.21 29.794 18.18V17.28C29.794 16.25 29.574 15.49 29.134 15C28.694 14.5 28.059 14.25 27.229 14.25C26.629 14.25 26.129 14.32 25.729 14.46C25.339 14.6 24.994 14.76 24.694 14.94C24.394 15.11 24.119 15.265 23.869 15.405C23.629 15.545 23.359 15.615 23.059 15.615C22.799 15.615 22.579 15.55 22.399 15.42C22.219 15.28 22.074 15.12 21.964 14.94L21.304 13.755ZM40.3934 14.28C40.8734 13.36 41.4434 12.64 42.1034 12.12C42.7634 11.59 43.5434 11.325 44.4434 11.325C45.1534 11.325 45.7234 11.48 46.1534 11.79L45.9134 14.565C45.8634 14.745 45.7884 14.875 45.6884 14.955C45.5984 15.025 45.4734 15.06 45.3134 15.06C45.1634 15.06 44.9384 15.035 44.6384 14.985C44.3484 14.935 44.0634 14.91 43.7834 14.91C43.3734 14.91 43.0084 14.97 42.6884 15.09C42.3684 15.21 42.0784 15.385 41.8184 15.615C41.5684 15.835 41.3434 16.105 41.1434 16.425C40.9534 16.745 40.7734 17.11 40.6034 17.52V27H36.8984V11.61H39.0734C39.4534 11.61 39.7184 11.68 39.8684 11.82C40.0184 11.95 40.1184 12.19 40.1684 12.54L40.3934 14.28ZM57.5653 17.535C57.5653 17.055 57.4953 16.605 57.3553 16.185C57.2253 15.755 57.0253 15.38 56.7553 15.06C56.4853 14.74 56.1403 14.49 55.7203 14.31C55.3103 14.12 54.8303 14.025 54.2803 14.025C53.2103 14.025 52.3653 14.33 51.7453 14.94C51.1353 15.55 50.7453 16.415 50.5753 17.535H57.5653ZM50.5003 19.77C50.5603 20.56 50.7003 21.245 50.9203 21.825C51.1403 22.395 51.4303 22.87 51.7903 23.25C52.1503 23.62 52.5753 23.9 53.0653 24.09C53.5653 24.27 54.1153 24.36 54.7153 24.36C55.3153 24.36 55.8303 24.29 56.2603 24.15C56.7003 24.01 57.0803 23.855 57.4003 23.685C57.7303 23.515 58.0153 23.36 58.2553 23.22C58.5053 23.08 58.7453 23.01 58.9753 23.01C59.2853 23.01 59.5153 23.125 59.6653 23.355L60.7303 24.705C60.3203 25.185 59.8603 25.59 59.3503 25.92C58.8403 26.24 58.3053 26.5 57.7453 26.7C57.1953 26.89 56.6303 27.025 56.0503 27.105C55.4803 27.185 54.9253 27.225 54.3853 27.225C53.3153 27.225 52.3203 27.05 51.4003 26.7C50.4803 26.34 49.6803 25.815 49.0003 25.125C48.3203 24.425 47.7853 23.565 47.3953 22.545C47.0053 21.515 46.8103 20.325 46.8103 18.975C46.8103 17.925 46.9803 16.94 47.3203 16.02C47.6603 15.09 48.1453 14.285 48.7753 13.605C49.4153 12.915 50.1903 12.37 51.1003 11.97C52.0203 11.57 53.0553 11.37 54.2053 11.37C55.1753 11.37 56.0703 11.525 56.8903 11.835C57.7103 12.145 58.4153 12.6 59.0053 13.2C59.5953 13.79 60.0553 14.52 60.3853 15.39C60.7253 16.25 60.8953 17.235 60.8953 18.345C60.8953 18.905 60.8353 19.285 60.7153 19.485C60.5953 19.675 60.3653 19.77 60.0253 19.77H50.5003ZM73.5907 17.535C73.5907 17.055 73.5207 16.605 73.3807 16.185C73.2507 15.755 73.0507 15.38 72.7807 15.06C72.5107 14.74 72.1657 14.49 71.7457 14.31C71.3357 14.12 70.8557 14.025 70.3057 14.025C69.2357 14.025 68.3907 14.33 67.7707 14.94C67.1607 15.55 66.7707 16.415 66.6007 17.535H73.5907ZM66.5257 19.77C66.5857 20.56 66.7257 21.245 66.9457 21.825C67.1657 22.395 67.4557 22.87 67.8157 23.25C68.1757 23.62 68.6007 23.9 69.0907 24.09C69.5907 24.27 70.1407 24.36 70.7407 24.36C71.3407 24.36 71.8557 24.29 72.2857 24.15C72.7257 24.01 73.1057 23.855 73.4257 23.685C73.7557 23.515 74.0407 23.36 74.2807 23.22C74.5307 23.08 74.7707 23.01 75.0007 23.01C75.3107 23.01 75.5407 23.125 75.6907 23.355L76.7557 24.705C76.3457 25.185 75.8857 25.59 75.3757 25.92C74.8657 26.24 74.3307 26.5 73.7707 26.7C73.2207 26.89 72.6557 27.025 72.0757 27.105C71.5057 27.185 70.9507 27.225 70.4107 27.225C69.3407 27.225 68.3457 27.05 67.4257 26.7C66.5057 26.34 65.7057 25.815 65.0257 25.125C64.3457 24.425 63.8107 23.565 63.4207 22.545C63.0307 21.515 62.8357 20.325 62.8357 18.975C62.8357 17.925 63.0057 16.94 63.3457 16.02C63.6857 15.09 64.1707 14.285 64.8007 13.605C65.4407 12.915 66.2157 12.37 67.1257 11.97C68.0457 11.57 69.0807 11.37 70.2307 11.37C71.2007 11.37 72.0957 11.525 72.9157 11.835C73.7357 12.145 74.4407 12.6 75.0307 13.2C75.6207 13.79 76.0807 14.52 76.4107 15.39C76.7507 16.25 76.9207 17.235 76.9207 18.345C76.9207 18.905 76.8607 19.285 76.7407 19.485C76.6207 19.675 76.3907 19.77 76.0507 19.77H66.5257ZM83.1961 14.28C83.6761 13.36 84.2461 12.64 84.9061 12.12C85.5661 11.59 86.3461 11.325 87.2461 11.325C87.9561 11.325 88.5261 11.48 88.9561 11.79L88.7161 14.565C88.6661 14.745 88.5911 14.875 88.4911 14.955C88.4011 15.025 88.2761 15.06 88.1161 15.06C87.9661 15.06 87.7411 15.035 87.4411 14.985C87.1511 14.935 86.8661 14.91 86.5861 14.91C86.1761 14.91 85.8111 14.97 85.4911 15.09C85.1711 15.21 84.8811 15.385 84.6211 15.615C84.3711 15.835 84.1461 16.105 83.9461 16.425C83.7561 16.745 83.5761 17.11 83.4061 17.52V27H79.7011V11.61H81.8761C82.2561 11.61 82.5211 11.68 82.6711 11.82C82.8211 11.95 82.9211 12.19 82.9711 12.54L83.1961 14.28ZM109.389 5.31L100.629 27H96.9837L88.2237 5.31H91.4637C91.8137 5.31 92.0987 5.395 92.3187 5.565C92.5387 5.735 92.7037 5.955 92.8137 6.225L97.9287 19.455C98.0987 19.885 98.2587 20.36 98.4087 20.88C98.5687 21.39 98.7187 21.925 98.8587 22.485C98.9787 21.925 99.1087 21.39 99.2487 20.88C99.3887 20.36 99.5437 19.885 99.7137 19.455L104.799 6.225C104.879 5.995 105.034 5.785 105.264 5.595C105.504 5.405 105.794 5.31 106.134 5.31H109.389ZM115.486 11.37C116.626 11.37 117.661 11.555 118.591 11.925C119.531 12.295 120.331 12.82 120.991 13.5C121.661 14.18 122.176 15.01 122.536 15.99C122.896 16.97 123.076 18.065 123.076 19.275C123.076 20.495 122.896 21.595 122.536 22.575C122.176 23.555 121.661 24.39 120.991 25.08C120.331 25.77 119.531 26.3 118.591 26.67C117.661 27.04 116.626 27.225 115.486 27.225C114.336 27.225 113.291 27.04 112.351 26.67C111.411 26.3 110.606 25.77 109.936 25.08C109.276 24.39 108.761 23.555 108.391 22.575C108.031 21.595 107.851 20.495 107.851 19.275C107.851 18.065 108.031 16.97 108.391 15.99C108.761 15.01 109.276 14.18 109.936 13.5C110.606 12.82 111.411 12.295 112.351 11.925C113.291 11.555 114.336 11.37 115.486 11.37ZM115.486 24.375C116.766 24.375 117.711 23.945 118.321 23.085C118.941 22.225 119.251 20.965 119.251 19.305C119.251 17.645 118.941 16.38 118.321 15.51C117.711 14.64 116.766 14.205 115.486 14.205C114.186 14.205 113.221 14.645 112.591 15.525C111.971 16.395 111.661 17.655 111.661 19.305C111.661 20.955 111.971 22.215 112.591 23.085C113.221 23.945 114.186 24.375 115.486 24.375ZM129.652 4.71V27H125.947V4.71H129.652ZM138.474 27.24C137.134 27.24 136.104 26.865 135.384 26.115C134.674 25.355 134.319 24.31 134.319 22.98V14.385H132.744C132.544 14.385 132.374 14.32 132.234 14.19C132.094 14.06 132.024 13.865 132.024 13.605V12.135L134.499 11.73L135.279 7.53C135.329 7.33 135.424 7.175 135.564 7.065C135.704 6.955 135.884 6.9 136.104 6.9H138.024V11.745H142.134V14.385H138.024V22.725C138.024 23.205 138.139 23.58 138.369 23.85C138.609 24.12 138.934 24.255 139.344 24.255C139.574 24.255 139.764 24.23 139.914 24.18C140.074 24.12 140.209 24.06 140.319 24C140.439 23.94 140.544 23.885 140.634 23.835C140.724 23.775 140.814 23.745 140.904 23.745C141.014 23.745 141.104 23.775 141.174 23.835C141.244 23.885 141.319 23.965 141.399 24.075L142.509 25.875C141.969 26.325 141.349 26.665 140.649 26.895C139.949 27.125 139.224 27.24 138.474 27.24Z" fill="white"/>
    <path d="M98.8 15.9L102.697 5.40002H94.9029L98.8 15.9Z" fill="#00cccc"/>
</svg>
